# AST/ASF file generated using VICON BodyLanguage
# -----------------------------------------------
:version 1.10
:name VICON
:units
  mass 1.0
  length 0.45
  angle deg
:documentation
   .ast/.asf automatically generated from VICON data using
   VICON BodyBuilder and BodyLanguage model FoxedUp or BRILLIANT.MOD
:root
   order TX TY TZ RX RY RZ
   axis XYZ
   position 0 0 0  
   orientation 0 0 0 
:bonedata
  begin
     id 1 
     name lhipjoint
     direction 0.711131 -0.61297 0.344326 
     length 2.29162 
     axis 0 0 0  XYZ
  end
  begin
     id 2 
     name lfemur
     direction 0.34202 -0.939693 0  
     length 6.71424  
     axis 0 0 20  XYZ
    dof rx ry rz
    limits (-160.0 20.0)
           (-70.0 70.0)
           (-60.0 70.0)
  end
  begin
     id 3 
     name ltibia
     direction 0.34202 -0.939693 0   
     length 6.7087   
     axis 0 0 20   XYZ
    dof rx
    limits (-10.0 170.0)
  end
  begin
     id 4 
     name lfoot
     direction 0.0230374 -0.0632947 0.997729   
     length 1.56743   
     axis -90 7.62852e-016 20   XYZ
    dof rx rz
    limits (-45.0 90.0)
           (-70.0 20.0)
  end
  begin
     id 5 
     name ltoes
     direction 1.53585e-011 -4.21885e-011 1   
     length 0.802914   
     axis -90 7.62852e-016 20   XYZ
    dof rx
    limits (-90.0 20.0)
  end
  begin
     id 6 
     name rhipjoint
     direction -0.733192 -0.592884 0.333043   
     length 2.36925  
     axis 0 0 0  XYZ 
  end
  begin
     id 7 
     name rfemur
     direction -0.34202 -0.939693 0   
     length 6.67027   
     axis 0 0 -20   XYZ
    dof rx ry rz
    limits (-160.0 20.0)
           (-70.0 70.0)
           (-70.0 60.0)
  end
  begin
     id 8 
     name rtibia
     direction -0.34202 -0.939693 0   
     length 6.6862   
     axis 0 0 -20   XYZ
    dof rx
    limits (-10.0 170.0)
 end
 begin
     id 9 
     name rfoot
     direction -0.0949739 -0.260939 0.960672   
     length 1.67698  
     axis -90 -7.62852e-016 -20   XYZ
    dof rx rz
    limits (-45.0 90.0)
           (-20.0 70.0)
  end
  begin
     id 10 
     name rtoes
     direction -1.5353e-011 -4.21868e-011 1   
     length 0.846298   
     axis -90 -7.62852e-016 -20   XYZ
    dof rx
    limits (-90.0 20.0)
  end
  begin
     id 11 
     name lowerback
     direction -0.0206828 0.999785 -0.00109866   
     length 2.04382   
     axis 0 0 0   XYZ
    dof rx ry rz
    limits (-20.0 45.0)
           (-30.0 30.0)
           (-30.0 30.0)
  end
  begin
     id 12 
     name upperback
     direction -0.0105003 0.999727 -0.0208904   
     length 2.04538   
     axis 0 0 0   XYZ
    dof rx ry rz
    limits (-20.0 45.0)
           (-30.0 30.0)
           (-30.0 30.0)
  end
  begin
     id 13 
     name thorax
     direction -0.000416255 0.999808 -0.0196023   
     length 2.0399   
     axis 0 0 0   XYZ
    dof rx ry rz
    limits (-20.0 45.0)
           (-30.0 30.0)
           (-30.0 30.0)
  end
  begin
     id 14 
     name lowerneck
     direction 0.0627861 0.989205 0.13241   
     length 1.46207   
     axis 0 0 0   XYZ
    dof rx ry rz
    limits (-20.0 45.0)
           (-30.0 30.0)
           (-30.0 30.0)
  end
  begin
     id 15 
     name upperneck
     direction 0.00627179 0.994526 0.104303   
     length 1.41419   
     axis 0 0 0   XYZ
    dof rx ry rz
    limits (-20.0 45.0)
           (-30.0 30.0)
           (-30.0 30.0)
  end
  begin
     id 16
     name head
     direction -0.00443838 0.999688 0.0245968  
     length 1.50718  
     axis 0 0 0   XYZ
    dof rx ry rz
    limits (-20.0 45.0)
           (-30.0 30.0)
           (-30.0 30.0)
  end
  begin
     id 17 
     name lclavicle
     direction 0.758742 0.650995 -0.0227258  
     length 2.86888  
     axis 0 0 0   XYZ
    dof ry rz
    limits (-20.0 10.0)
           (0.0 20.0)
  end
  begin
     id 18 
     name lhumerus
     direction 1 -4.48962e-011 1.06664e-027   
     length 4.65776   
     axis -180 -30 -90   XYZ
    dof rx ry rz
    limits (-60.0 90.0)
           (-90.0 90.0)
           (-90.0 90.0)
  end
  begin
     id 19
     name lradius
     direction 1 -4.48968e-011 1.40404e-026   
     length 3.55539   
     axis -180 -30 -90   XYZ
    dof rx
    limits (-10.0 170.0)
  end
  begin
     id 20
     name lwrist
     direction 1 -4.48976e-011 3.32647e-026   
     length 1.77769   
     axis -2.20186e-014 90 90   XYZ
    dof ry
    limits (-180.0 0.0)
 end
  begin
     id 21 
     name lhand
     direction 1 -4.48982e-011 6.65293e-026   
     length 0.707264   
     axis -4.24514e-014 90 90   XYZ
    dof rx rz
    limits (-90.0 90.0)
           (-45.0 45.0)
  end
  begin
     id 22 
     name lfingers
     direction 1 -4.48966e-011 1.33059e-025   
     length 0.570215   
     axis -8.49028e-014 90 90   XYZ
    dof rx
    limits (0.0 90.0)
  end
  begin
     id 23
     name lthumb
     direction 0.707107 -6.3493e-011 0.707107   
     length 0.818718   
     axis -90 45 2.85299e-015   XYZ
    dof rx rz
    limits (-45.0 45.0)
           (-45.0 45.0)
  end
  begin
     id 24 
     name rclavicle
     direction -0.870343 0.482028 -0.100759   
     length 3.2251  
     axis 0 0 0   XYZ 
    dof ry rz
    limits (-10.0 20.0)
           (-20.0 0.0)
  end
  begin
     id 25 
     name rhumerus
     direction -1 -4.48974e-011 -9.45849e-028  
     length 4.71925   
     axis -180 30 90   XYZ
    dof rx ry rz
    limits (-90.0 60.0)
           (-90.0 90.0)
           (-90.0 90.0)
  end
  begin
     id 26 
     name rradius
     direction -1 -4.48965e-011 1.17607e-026   
     length 3.5699   
     axis -180 30 90   XYZ
    dof rx
    limits (-10.0 170.0)
  end
  begin
     id 27 
     name rwrist
     direction -1 -4.48968e-011 3.32647e-026   
     length 1.78495   
     axis -2.20186e-014 -90 -90   XYZ
    dof ry
    limits (-180.0 0.0)
  end
  begin
     id 28
     name rhand
     direction -1 -4.48995e-011 6.65293e-026   
     length 0.507757   
     axis -4.24514e-014 -90 -90   XYZ
    dof rx rz
    limits (-90.0 90.0)
           (-45.0 45.0)
  end
  begin
     id 29
     name rfingers
     direction -1 -4.48864e-011 1.33059e-025   
     length 0.409367   
     axis -8.49028e-014 -90 -90   XYZ
    dof rx
    limits (0.0 90.0)
  end
  begin
     id 30
     name rthumb
     direction -0.707107 -6.3494e-011 0.707107   
     length 0.587771   
     axis -90 -45 -2.85299e-015   XYZ
    dof rx rz
    limits (-45.0 45.0)
           (-45.0 45.0)
  end
:hierarchy
  begin
    root lhipjoint rhipjoint lowerback
    lhipjoint lfemur
    lfemur ltibia
    ltibia lfoot
    lfoot ltoes
    rhipjoint rfemur
    rfemur rtibia
    rtibia rfoot
    rfoot rtoes
    lowerback upperback
    upperback thorax
    thorax lowerneck lclavicle rclavicle
    lowerneck upperneck
    upperneck head
    lclavicle lhumerus
    lhumerus lradius
    lradius lwrist
    lwrist lhand lthumb
    lhand lfingers
    rclavicle rhumerus
    rhumerus rradius
    rradius rwrist
    rwrist rhand rthumb
    rhand rfingers
  end

#!OML:ASF E:\Steps\Project 1\Capture day 1\Session 2\Subject.ASF
:FULLY-SPECIFIED
:DEGREES
32
root 7.07776 16.2897 31.5604 -154.463 -1.0809 177.901
lowerback -28.6949 -1.09102 -7.33137
upperback -1.29995 0.40645 -0.762489
thorax 13.6516 -0.518045 3.25152
lowerneck -5.3728 -3.37299 -1.80223
upperneck 7.46972 -5.20683 7.06812
head 3.67481 -2.44815 2.41542
rclavicle 2.18663e-015 1.19271e-015
rhumerus -41.1708 -24.96 -73.7472
rradius 27.8382
rwrist 2.20816
rhand -7.0598 -50.559
rfingers 7.12502
rthumb 18.8133 -79.6692
lclavicle 2.18663e-015 1.19271e-015
lhumerus -31.7049 10.9691 77.9172
lradius 21.7784
lwrist -3.96906
lhand -20.7949 -13.2797
lfingers 7.12502
lthumb 5.57242 16.627
rfemur -22.3641 4.74204 20.7123
rtibia 5.92262
rfoot -19.0526 -6.62494
rtoes -27.9886
lfemur -23.9373 -9.63463 -20.3511
ltibia 9.37521
lfoot -8.35731 -1.36515
ltoes -28.7959
33
root 7.07692 16.2882 31.5609 -154.475 -0.969425 177.909
lowerback -28.6586 -1.08274 -7.33294
upperback -1.32342 0.409061 -0.750854
thorax 13.6074 -0.516256 3.26595
lowerneck -5.29173 -3.34389 -1.89035
upperneck 7.27884 -5.16294 7.23627
head 3.60042 -2.42827 2.4916
rclavicle -6.4605e-016 -1.19271e-014
rhumerus -41.199 -24.9992 -73.6803
rradius 27.8658
rwrist 2.31297
rhand -7.00241 -50.2582
rfingers 7.12502
rthumb 18.8685 -79.3631
lclavicle -6.4605e-016 -1.19271e-014
lhumerus -31.7026 10.9334 77.9693
lradius 21.8688
lwrist -3.87699
lhand -20.8925 -13.4528
lfingers 7.12502
lthumb 5.47819 16.4564
rfemur -22.4129 4.49365 20.7652
rtibia 6.01462
rfoot -19.0579 -6.25402
rtoes -27.9196
lfemur -23.8651 -9.65886 -20.3737
ltibia 9.29601
lfoot -8.34624 -1.25487
ltoes -28.3693
34
root 7.07632 16.2858 31.5625 -154.387 -0.870281 177.962
lowerback -28.7349 -1.03034 -7.27369
upperback -1.37261 0.450581 -0.73618
thorax 13.5824 -0.496497 3.26398
lowerneck -5.18916 -3.33223 -2.06189
upperneck 7.02232 -5.14124 7.5102
head 3.50806 -2.42018 2.61835
rclavicle 3.42904e-015 3.06128e-014
rhumerus -41.2849 -24.9959 -73.6327
rradius 28.0385
rwrist 2.17184
rhand -7.14496 -50.5535
rfingers 7.12502
rthumb 18.7314 -79.6717
lclavicle 3.42904e-015 3.06128e-014
lhumerus -31.6952 10.7979 78.0965
lradius 21.983
lwrist -3.826
lhand -21.0016 -13.4568
lfingers 7.12502
lthumb 5.37284 16.4551
rfemur -22.5607 4.49944 20.8133
rtibia 6.13176
rfoot -19.0791 -6.1032
rtoes -27.6582
lfemur -23.978 -9.46954 -20.3593
ltibia 9.32703
lfoot -8.30793 -1.38072
ltoes -27.0719
35
root 7.07696 16.2874 31.5651 -154.403 -0.838315 177.998
lowerback -28.6959 -0.991649 -7.24172
upperback -1.4016 0.482094 -0.724774
thorax 13.5285 -0.479034 3.27101
lowerneck -5.17313 -3.326 -2.11743
upperneck 7.01703 -5.13256 7.55523
head 3.50664 -2.41652 2.64479
rclavicle 6.36111e-015 7.15625e-015
rhumerus -41.3496 -24.8693 -73.6938
rradius 28.2417
rwrist 1.91831
rhand -7.52204 -51.0275
rfingers 7.12502
rthumb 18.3687 -80.1802
lclavicle 6.36111e-015 7.15625e-015
lhumerus -31.6657 10.6967 78.2078
lradius 22.0591
lwrist -3.97837
lhand -21.2858 -13.2156
lfingers 7.12502
lthumb 5.09842 16.7031
rfemur -22.5601 4.62293 20.8299
rtibia 6.15593
rfoot -19.106 -6.21986
rtoes -27.5581
lfemur -23.9978 -9.29108 -20.3462
ltibia 9.36728
lfoot -8.29507 -1.48036
ltoes -27.0596
36
root 7.07733 16.2883 31.5676 -154.48 -0.785094 177.889
lowerback -28.5934 -1.02168 -7.35439
upperback -1.39556 0.476381 -0.748477
thorax 13.4863 -0.485324 3.30477
lowerneck -5.29316 -3.31974 -2.02714
upperneck 7.24131 -5.13052 7.37586
head 3.59693 -2.41236 2.5665
rclavicle -7.45443e-016 1.90833e-014
rhumerus -41.3229 -24.7709 -73.7881
rradius 28.36
rwrist 1.82234
rhand -7.67277 -51.3106
rfingers 7.12502
rthumb 18.2237 -80.4769
lclavicle -7.45443e-016 1.90833e-014
lhumerus -31.6237 10.5493 78.3227
lradius 22.176
lwrist -3.9647
lhand -21.5235 -12.8583
lfingers 7.12502
lthumb 4.86891 17.0657
rfemur -22.4911 4.74433 20.6584
rtibia 6.12951
rfoot -19.1317 -6.39406
rtoes -27.576
lfemur -23.8954 -9.43598 -20.4661
ltibia 9.3288
lfoot -8.24378 -1.2639
ltoes -28.0642
37
root 7.0779 16.2887 31.5696 -154.558 -0.784375 177.788
lowerback -28.4744 -1.07172 -7.44876
upperback -1.39135 0.436695 -0.767683
thorax 13.4385 -0.505387 3.321
lowerneck -5.87423 -3.37548 -1.84032
upperneck 7.90638 -5.23773 7.03539
head 3.92887 -2.44938 2.40673
rclavicle 6.95746e-015 -1.39149e-014
rhumerus -41.2706 -24.6872 -73.8808
rradius 28.4694
rwrist 1.7367
rhand -7.55527 -51.7775
rfingers 7.12502
rthumb 18.3367 -80.9333
lclavicle 6.95746e-015 -1.39149e-014
lhumerus -31.6047 10.3762 78.4215
lradius 22.3597
lwrist -3.77737
lhand -21.4747 -12.6445
lfingers 7.12502
lthumb 4.91599 17.2785
rfemur -22.4037 4.76898 20.5274
rtibia 6.05727
rfoot -19.0933 -6.47661
rtoes -27.5936
lfemur -23.8043 -9.58066 -20.5692
ltibia 9.31433
lfoot -8.22923 -1.17261
ltoes -27.4644
38
root 7.07845 16.2887 31.5715 -154.577 -0.777972 177.8
lowerback -28.4219 -1.07533 -7.44397
upperback -1.4165 0.421044 -0.755629
thorax 13.3871 -0.510684 3.32579
lowerneck -5.23692 -3.25297 -2.2185
upperneck 7.22338 -5.05368 7.62813
head 3.59334 -2.37524 2.69378
rclavicle -5.51627e-015 1.66979e-014
rhumerus -41.2555 -24.462 -74.0177
rradius 28.6872
rwrist 1.47746
rhand -7.28309 -52.3664
rfingers 7.12502
rthumb 18.5985 -81.4973
lclavicle -5.51627e-015 1.66979e-014
lhumerus -31.5994 10.3241 78.4688
lradius 22.486
lwrist -3.69301
lhand -21.4416 -12.7773
lfingers 7.12502
lthumb 4.94799 17.1449
rfemur -22.4103 4.55139 20.5874
rtibia 6.07629
rfoot -19.0634 -6.25199
rtoes -27.7649
lfemur -23.8233 -9.44174 -20.5759
ltibia 9.36112
lfoot -8.28081 -1.34504
ltoes -26.7633
39
root 7.0783 16.2878 31.5718 -154.585 -0.732268 177.846
lowerback -28.4343 -1.0585 -7.40302
upperback -1.4101 0.430782 -0.741962
thorax 13.4002 -0.50431 3.32227
lowerneck -5.17057 -3.25005 -2.30012
upperneck 7.15826 -5.05411 7.76212
head 3.56653 -2.37702 2.75558
rclavicle 5.86415e-015 -1.55052e-014
rhumerus -41.1971 -24.2935 -74.1682
rradius 28.8949
rwrist 1.29809
rhand -7.06812 -52.6616
rfingers 7.12502
rthumb 18.8053 -81.7726
lclavicle 5.86415e-015 -1.55052e-014
lhumerus -31.5392 10.348 78.4907
lradius 22.5466
lwrist -3.69951
lhand -21.4325 -13.0824
lfingers 7.12502
lthumb 4.95673 16.8397
rfemur -22.4293 4.36285 20.686
rtibia 6.18651
rfoot -19.1364 -6.02004
rtoes -27.8955
lfemur -23.8206 -9.31814 -20.5456
ltibia 9.35185
lfoot -8.28028 -1.4769
ltoes -26.7085
40
root 7.07729 16.2874 31.5722 -154.582 -0.754009 177.865
lowerback -28.4269 -1.07395 -7.36856
upperback -1.4073 0.397605 -0.719111
thorax 13.4044 -0.51727 3.31631
lowerneck -5.14917 -3.34475 -2.34306
upperneck 6.99869 -5.1777 7.8802
head 3.52093 -2.43886 2.79709
rclavicle -2.18663e-015 1.59028e-014
rhumerus -41.1339 -24.13 -74.2849
rradius 29.0529
rwrist 1.1987
rhand -7.10271 -52.441
rfingers 7.12502
rthumb 18.772 -81.5552
lclavicle -2.18663e-015 1.59028e-014
lhumerus -31.4763 10.4239 78.5181
lradius 22.6163
lwrist -3.71997
lhand -21.2752 -13.2263
lfingers 7.12502
lthumb 5.10865 16.6921
rfemur -22.4424 4.31201 20.7257
rtibia 6.2325
rfoot -19.2091 -5.99438
rtoes -27.8396
lfemur -23.8103 -9.44306 -20.502
ltibia 9.32204
lfoot -8.24173 -1.36484
ltoes -27.2775
41
root 7.0761 16.2878 31.5733 -154.573 -0.747015 177.859
lowerback -28.399 -1.1089 -7.36423
upperback -1.43774 0.337393 -0.672167
thorax 13.363 -0.544212 3.34224
lowerneck -4.99271 -3.47098 -2.33952
upperneck 6.76387 -5.32881 7.88761
head 3.41836 -2.5198 2.79108
rclavicle 1.01877e-014 -1.59028e-015
rhumerus -41.1014 -23.807 -74.3976
rradius 29.2689
rwrist 1.05347
rhand -7.20031 -52.0147
rfingers 7.12502
rthumb 18.6782 -81.138
lclavicle 1.01877e-014 -1.59028e-015
lhumerus -31.476 10.4077 78.6403
lradius 22.7234
lwrist -3.61461
lhand -21.1325 -13.1722
lfingers 7.12502
lthumb 5.24642 16.7428
rfemur -22.472 4.31607 20.704
rtibia 6.16283
rfoot -19.1062 -5.97116
rtoes -27.6494
lfemur -23.8051 -9.5584 -20.4982
ltibia 9.30916
lfoot -8.21787 -1.20476
ltoes -27.6982
42
root 7.07575 16.2892 31.574 -154.534 -0.726017 177.944
lowerback -28.4519 -1.11263 -7.26658
upperback -1.44299 0.298074 -0.622577
thorax 13.3877 -0.558445 3.32817
lowerneck -5.12226 -3.45981 -2.0025
upperneck 7.21743 -5.28278 7.07218
head 3.54959 -2.49772 2.45114
rclavicle -4.62174e-015 1.82882e-014
rhumerus -41.0192 -23.5207 -74.5557
rradius 29.5445
rwrist 0.829067
rhand -7.33129 -51.735
rfingers 7.12502
rthumb 18.5522 -80.8704
lclavicle -4.62174e-015 1.82882e-014
lhumerus -31.4409 10.2118 78.8196
lradius 22.876
lwrist -3.46754
lhand -21.1189 -13.177
lfingers 7.12502
lthumb 5.25953 16.7378
rfemur -22.4989 4.44544 20.7706
rtibia 6.06762
rfoot -18.9762 -6.00289
rtoes -27.569
lfemur -23.8496 -9.60379 -20.3631
ltibia 9.30323
lfoot -8.23522 -1.15489
ltoes -26.7138
43
root 7.0762 16.2904 31.5752 -154.514 -0.760727 178.031
lowerback -28.4758 -1.08618 -7.1439
upperback -1.432 0.298146 -0.623983
thorax 13.414 -0.5514 3.26056
lowerneck -5.28071 -3.35937 -2.2793
upperneck 7.13212 -5.16624 7.52705
head 3.57443 -2.43291 2.66313
rclavicle 7.45443e-016 -2.06736e-014
rhumerus -40.955 -23.4811 -74.6817
rradius 29.7878
rwrist 0.583572
rhand -7.59194 -51.827
rfingers 7.12502
rthumb 18.3014 -80.9861
lclavicle 7.45443e-016 -2.06736e-014
lhumerus -31.3766 9.82517 78.9824
lradius 23.0727
lwrist -3.22762
lhand -21.2093 -13.167
lfingers 7.12502
lthumb 5.17222 16.7499
rfemur -22.4784 4.54158 20.8737
rtibia 6.08008
rfoot -19.0398 -6.08143
rtoes -27.7005
lfemur -23.8932 -9.62596 -20.2227
ltibia 9.33203
lfoot -8.30715 -1.09277
ltoes -26.7505
44
root 7.07597 16.2895 31.5771 -154.57 -0.745899 177.996
lowerback -28.3663 -1.07905 -7.14785
upperback -1.44994 0.302652 -0.653401
thorax 13.3424 -0.545905 3.23335
lowerneck -5.29222 -3.39416 -2.19739
upperneck 7.12356 -5.2124 7.46088
head 3.57034 -2.45534 2.62237
rclavicle -4.62174e-015 3.97569e-015
rhumerus -40.8798 -23.4634 -74.7751
rradius 29.9119
rwrist 0.288333
rhand -7.39623 -52.207
rfingers 7.12502
rthumb 18.4897 -81.3483
lclavicle -4.62174e-015 3.97569e-015
lhumerus -31.3831 9.48647 79.1124
lradius 23.2453
lwrist -2.8909
lhand -21.4354 -13.1049
lfingers 7.12502
lthumb 4.95391 16.8172
rfemur -22.4246 4.38295 20.8729
rtibia 6.15595
rfoot -19.1864 -5.94294
rtoes -27.743
lfemur -23.833 -9.58979 -20.2983
ltibia 9.34597
lfoot -8.34632 -1.0241
ltoes -27.9074
